<svg id="Layer_1" data-name="Layer 1" xmlns="http://www.w3.org/2000/svg" viewBox="0 0 55.63 100"><defs><style>.cls-1{fill:#9ba8ba;}.cls-2{fill:#747d89;}.cls-3{fill:#231f20;}.cls-4{fill:#eaa496;}.cls-5{fill:#cadaef;}.cls-6{fill:#fff;}</style></defs><path class="cls-1" d="M55.44,51.22c-1.29-13.87-2.9-23.94-6.07-35.09C48.3,12.34,46,1.79,44.06,1.52c-1.2-.16-3.19,1.36-4.75,3.09C35.5,2.36,30.48,2,24.5,2.57a18.06,18.06,0,0,0-5.9,1.56C17.1,2.34,14.79-.13,13.54,0c-1.95.2-4.45,10.35-5.39,14C5.48,24.22,2.34,33.2,1.42,45.63-.25,68.21,7.57,98,9.35,99c1.05.6,1.27-.78,1.27-.78s.11,1,1.48,1.08,1.22-1,1.22-1a1.08,1.08,0,0,0,1.13,1c1.53,0,1.2-4.74,1.76-7.08.5-2.08,1.51-3.72,6.8-3.51,1,.14,2,.25,3.14.3a53.47,53.47,0,0,0,8.75-.25h.22a7,7,0,0,1,7.35,4.32c.72,2.29.73,7,2.25,6.94a1.07,1.07,0,0,0,1.05-1.08s0,1.08,1.3.91,1.4-1.18,1.4-1.18.31,1.36,1.32.68C51.23,98.37,56.72,64.89,55.44,51.22Z"/><path class="cls-2" d="M25,24h-.34a.32.32,0,0,1-.29-.35.31.31,0,0,1,.34-.29s2.14.15,2.91-.92A3.34,3.34,0,0,0,28,20.7a.32.32,0,0,1,.64,0,4.07,4.07,0,0,1-.52,2.15C27.32,23.89,25.67,24,25,24Z"/><path class="cls-2" d="M31.89,23.78l.33,0a.32.32,0,0,0,.27-.37.32.32,0,0,0-.36-.27s-2.12.29-3-.72a3.4,3.4,0,0,1-.51-1.71.32.32,0,0,0-.64,0,4,4,0,0,0,.66,2.1A4,4,0,0,0,31.89,23.78Z"/><path class="cls-3" d="M30,18.47c-.48-.52-1.59.1-1.65.13s-1.14-.7-1.64-.2C25.45,19.61,28,20.9,28.25,21h0C28.48,20.91,31.13,19.73,30,18.47Z"/><path class="cls-2" d="M16.28,10.31a.52.52,0,0,1-.38-.17A.49.49,0,0,1,16,9.46a3.16,3.16,0,0,1,1.15-.6,3.34,3.34,0,0,1,1.29-.11.48.48,0,0,1,.39.55.48.48,0,0,1-.55.4h0a2.6,2.6,0,0,0-.89.08,2.34,2.34,0,0,0-.77.41A.49.49,0,0,1,16.28,10.31Z"/><path class="cls-2" d="M40.39,10.14a.47.47,0,0,0,.36-.2.48.48,0,0,0-.12-.67,3.18,3.18,0,0,0-1.2-.49,3.11,3.11,0,0,0-1.29,0,.48.48,0,0,0,.24.92h0a2.56,2.56,0,0,1,.9,0,2.19,2.19,0,0,1,.81.33A.47.47,0,0,0,40.39,10.14Z"/><path class="cls-3" d="M20.54,18.21a.55.55,0,0,1-.53-.43c0-.07-.22-.76-1.5-.76a1.53,1.53,0,0,0-1.52.85.54.54,0,0,1-1-.38,2.58,2.58,0,0,1,2.53-1.55c2.22,0,2.55,1.56,2.56,1.63a.53.53,0,0,1-.43.63Z"/><path class="cls-3" d="M16.74,17.48a.31.31,0,0,1-.2-.07l-1.27-1a.33.33,0,0,1,0-.45.32.32,0,0,1,.45-.05l1.27,1a.32.32,0,0,1-.2.57Z"/><path class="cls-3" d="M17.6,17a.32.32,0,0,1-.29-.2l-.62-1.49a.32.32,0,1,1,.59-.25l.62,1.5a.31.31,0,0,1-.18.41A.27.27,0,0,1,17.6,17Z"/><path class="cls-3" d="M34.84,18.12a.54.54,0,0,0,.54-.42c0-.07.24-.75,1.51-.72a1.52,1.52,0,0,1,1.5.89.55.55,0,0,0,.69.32.53.53,0,0,0,.33-.68,2.6,2.6,0,0,0-2.49-1.61c-2.22-.06-2.58,1.5-2.6,1.56a.55.55,0,0,0,.41.65Z"/><path class="cls-3" d="M38.66,17.49a.36.36,0,0,0,.2-.06l1.29-1a.32.32,0,0,0,.06-.45.33.33,0,0,0-.45-.06l-1.29,1a.31.31,0,0,0-.06.44A.31.31,0,0,0,38.66,17.49Z"/><path class="cls-3" d="M37.81,17a.34.34,0,0,0,.3-.19l.65-1.48a.32.32,0,0,0-.16-.42.33.33,0,0,0-.43.16l-.65,1.48a.32.32,0,0,0,.16.42A.28.28,0,0,0,37.81,17Z"/><path class="cls-4" d="M11.13,9.52l2.66-2.45a9.43,9.43,0,0,1,3.32-1.81S14.7,1.15,13.63,1.61,11.13,9.52,11.13,9.52Z"/><path class="cls-4" d="M46.12,10.76S44.36,9,43.53,8.23a9.36,9.36,0,0,0-3.26-1.92s2.55-4,3.6-3.54S46.12,10.76,46.12,10.76Z"/><path class="cls-2" d="M2.05,66.78a11.54,11.54,0,0,0-2,7.67c.64,7,5.92,11.2,12.57,12.14,6.82,1,9,.11,9.16-1.92S17.7,82.5,14,81.8C5.59,80.2,3.56,73.7,3.56,73.7Z"/><path class="cls-5" d="M23.12,2.75C23.88,4.82,23,9.34,24.52,9c1.23-.3.2-4.43.93-6.54C25.39,2.44,23.12,2.75,23.12,2.75Z"/><path class="cls-5" d="M30.39,2.37c-.65,0-3.21,0-3.21,0,0,2-.28,2.94-.18,4.94.05,1-.06,5,1.84,3.76,1.22-.77.6-3.57.71-4.82C29.69,4.86,30.32,3,30.39,2.37Z"/><path class="cls-5" d="M34.59,2.86l-2.16-.35c-.21,1.57-.16,7.87,1.29,7.14C34.91,9.05,33.71,4.71,34.59,2.86Z"/><path class="cls-5" d="M9.09,80,7.43,78.89a6,6,0,0,0-2.8,4c-.11.54,1.36,1.3,2.34,1.9a26.15,26.15,0,0,1,1-2.92C8.39,80.92,9.5,80.34,9.09,80Z"/><path class="cls-5" d="M14,81.85l-1.73-.48c-2.22,4.78-2.58,4.74.24,5.19.82.13.34.25,1-2.83C13.76,82.39,14.41,82,14,81.85Z"/><path class="cls-5" d="M19,82.65l-1.27-.21c-.36.43-1.4,4-.95,4.54a6.8,6.8,0,0,0,1.6,0A6.68,6.68,0,0,0,19,82.65Z"/><path class="cls-5" d="M4.62,75.84l-.29-.52c-1.17.22-2.76,1.69-3.52,2.6a10.43,10.43,0,0,0,1.28,2.55c.41.6.77-.34,1.18-1.27a3.08,3.08,0,0,1,1.47-1.53C5.93,76.88,5.22,76.79,4.62,75.84Z"/><path class="cls-5" d="M14.46,44.8c0-7.37,4.6-10.57,10.46-11.17,4.65-.48,15.35.19,16.22,8.75.16,1.56.92,3.28-.53,4.34s-3.43,1-5.06,1.52a19.67,19.67,0,0,1-5.24.86c-3.32.16-7.36.58-10.45-.57-1.11-.41-2.23-1-3.3-1.46A4.79,4.79,0,0,1,14.46,44.8Z"/><path class="cls-5" d="M15.07,52.71c-.54,1.64.3,10.07.75,12.47,1.25,6.76,5.68,10.57,13,10.52,2.38,0,15.29.3,13.78-19.57-.06-.77,0-3.66,0-3.66-1.59.33-4.86,1.08-6.39.46a21.16,21.16,0,0,0-10.67-1.3c-1.73.33-3.54.53-5.21.87C19.55,52.65,15.07,52.71,15.07,52.71Z"/><rect class="cls-6" x="20" y="44.72" width="16.75" height="11.35"/><path class="cls-2" d="M17.59,53.46a11.81,11.81,0,0,1-1.76-.16h-.07A15.29,15.29,0,0,1,5.2,45.53c-1-1.86-2.63-6.86-2.39-9.11A.5.5,0,0,1,3.34,36a.48.48,0,0,1,.42.53c-.21,2,1.36,6.76,2.29,8.57a14.43,14.43,0,0,0,9.85,7.25H16c2.41.36,3.12,0,3.3-.42a.83.83,0,0,0-.31-.31.48.48,0,0,1,.19-.93.52.52,0,0,0,.57-.42c0-.26-.28-.35-.47-.38a.46.46,0,0,1-.4-.49.48.48,0,0,1,.44-.46c.28,0,.46-.14.45-.29s-.19-.34-.53-.36-3.5-.53-4.93-2.27a15.45,15.45,0,0,1-3.06-7.09.47.47,0,1,1,.94-.13A14.53,14.53,0,0,0,15,45.41c1.1,1.33,3.74,1.9,4.23,1.92a1.41,1.41,0,0,1,1.45,1.3,1.15,1.15,0,0,1-.31.81,1.19,1.19,0,0,1,.28.92,1.45,1.45,0,0,1-.62,1,1.09,1.09,0,0,1,.08.15,1,1,0,0,1,0,.79C19.74,53.24,18.63,53.46,17.59,53.46Z"/><path class="cls-2" d="M38.92,53.6a11.41,11.41,0,0,0,1.76-.18h.07a15.27,15.27,0,0,0,10.48-7.86c.93-1.87,2.56-6.88,2.3-9.14A.48.48,0,0,0,53,36a.47.47,0,0,0-.42.53c.23,2-1.3,6.78-2.21,8.6a14.45,14.45,0,0,1-9.77,7.35h-.08c-2.4.38-3.12,0-3.31-.39a.91.91,0,0,1,.31-.31.5.5,0,0,0,.29-.56.48.48,0,0,0-.48-.37.52.52,0,0,1-.58-.42c0-.26.28-.35.46-.38a.48.48,0,0,0,.4-.49.48.48,0,0,0-.44-.46c-.28,0-.46-.13-.46-.29s.18-.34.53-.36,3.49-.57,4.91-2.32a15.65,15.65,0,0,0,3-7.12.47.47,0,0,0-.42-.53.47.47,0,0,0-.53.41,14.51,14.51,0,0,1-2.79,6.64c-1.09,1.34-3.73,1.94-4.21,2a1.39,1.39,0,0,0-1.44,1.3,1.17,1.17,0,0,0,.32.81,1.21,1.21,0,0,0-.27.93,1.45,1.45,0,0,0,.63,1,1.09,1.09,0,0,0-.08.15.91.91,0,0,0,0,.79C36.77,53.4,37.88,53.61,38.92,53.6Z"/><path class="cls-1" d="M36.32,56a.26.26,0,0,1-.17-.05L20.54,45.85a.33.33,0,0,1-.1-.45.31.31,0,0,1,.44-.09L36.49,55.38a.31.31,0,0,1,.1.44A.32.32,0,0,1,36.32,56Z"/><path class="cls-1" d="M36.32,45a.34.34,0,0,0-.17.05L20.54,55.16a.32.32,0,0,0,.34.54L36.49,45.63a.31.31,0,0,0,.1-.44A.33.33,0,0,0,36.32,45Z"/><path class="cls-4" d="M31.67,48c-.89-.92-3,.18-3.08.24s-2.13-1.25-3.07-.37c-2.28,2.15,2.57,4.43,2.95,4.61h0C28.9,52.3,33.85,50.22,31.67,48Z"/></svg>