<svg id="Layer_1" data-name="Layer 1" xmlns="http://www.w3.org/2000/svg" viewBox="0 0 59.63 70"><defs><style>.cls-1{fill:#549e92;}.cls-2{fill:#cadaef;}.cls-3{fill:#66363a;}.cls-4{fill:#9c5255;}.cls-5{fill:#fff;}.cls-6{fill:#231f20;}.cls-7{fill:#eaa496;}.cls-8{fill:#9ba8ba;}.cls-9{fill:#747d89;}</style></defs><polygon class="cls-1" points="13.26 48.11 2.91 47.81 0 70 56.64 69.9 53.02 47.3 13.26 48.11"/><polygon class="cls-2" points="47.8 70 46.59 49.25 47.8 49.25 49.41 70 47.8 70"/><path class="cls-2" d="M51,69.91h3.25L51,48.47l-1.57.42Z"/><path class="cls-3" d="M45.24,45.94s1.22,1,5.26-.57,5.46-9.68,8.18-8.83-.92,9.88-4.89,12.12c-7.33,4.14-11.46,1.6-11.46,1.6Z"/><path class="cls-4" d="M43.37,50.52c1.36-1.81,9.22-13.44,7.8-20.8-.44-2.3-5-.85-5-.85s.39-11.78.46-16.55C46.25,8.47,47,3.6,45.15,3c-.82-.27-3.23,1.56-4.56,2.64A20.24,20.24,0,0,0,31.8,3.17,22.64,22.64,0,0,0,24,3.82C23.23,2,21.91-.13,20.69,0c-1.69.18-4.87,7.14-6,9.16-2.41,4.3-4.88,17.69-4.88,17.69s-4.39-1.12-4.9,3.24C4.11,37,10,47.73,11,49.75a4,4,0,0,0-1,1.29c-.26.63.61,1.37,1.37.78-.56,1.35,1.38,1.84,2,1-.29.52.42.79.93.82a2,2,0,0,0,1.31-.52,9.58,9.58,0,0,0,1.19-1.35c.16-.19.32-.4.47-.6a88.88,88.88,0,0,0,10.33.62c3.94,0,7.07-.11,9.46-.29l.3.48a10.82,10.82,0,0,0,1.08,1.44,2.19,2.19,0,0,0,1.36.61c.51,0,1.14-.17.9-.71.91.89,2.46.45,2-.85.48.55,1.77.19,1.44-.66A4.37,4.37,0,0,0,43.37,50.52Z"/><path class="cls-3" d="M21.91,52.42a1.49,1.49,0,0,1-.95-.35,1.28,1.28,0,0,1-1.24,0c-1.18-.56-4.63-5.28-5.86-11-2.72-12.59-1.27-17.73-1.21-17.94a.58.58,0,0,1,.7-.39.56.56,0,0,1,.38.7h0S12.31,28.59,15,40.84C16.2,46.55,19.56,50.7,20.2,51l.17.06a.56.56,0,0,1,.47-.53.55.55,0,0,1,.61.35h0s.17.42.48.4a.21.21,0,0,0,.11,0,.54.54,0,0,0,0-.29.57.57,0,0,1,.32-.65.58.58,0,0,1,.7.21.84.84,0,0,0,.31.28,20.1,20.1,0,0,0-.49-2.69C22,44,20.45,37,22.62,30.72a.55.55,0,0,1,.72-.35.56.56,0,0,1,.35.71c-2.07,6-.58,12.77.31,16.81.55,2.49.75,3.42.14,3.85a1.22,1.22,0,0,1-.92.2,1.55,1.55,0,0,1-.23-.06l-.06.08a1.2,1.2,0,0,1-1,.46Z"/><path class="cls-3" d="M33.28,52.7h-.11a1.24,1.24,0,0,1-1-.49.41.41,0,0,1,0-.09,1,1,0,0,1-.23.06,1.18,1.18,0,0,1-.92-.24c-.6-.44-.36-1.36.27-3.84,1-4,2.74-10.7.87-16.79a.57.57,0,0,1,.37-.7.57.57,0,0,1,.71.37c2,6.39.2,13.28-.85,17.4a20.72,20.72,0,0,0-.59,2.67.89.89,0,0,0,.33-.27.55.55,0,0,1,.69-.18.56.56,0,0,1,.31.65.48.48,0,0,0,0,.3h0a.21.21,0,0,0,.11,0c.31,0,.49-.39.49-.39a.56.56,0,0,1,1.08.22.54.54,0,0,0,.16-.06c.66-.28,4.15-4.32,5.57-10,3-12,1.38-15.91,1.36-16a.56.56,0,0,1,1-.48c.08.17,1.87,4.16-1.28,16.71-1.42,5.63-5,10.23-6.22,10.75a1.27,1.27,0,0,1-1.24,0A1.46,1.46,0,0,1,33.28,52.7Z"/><path class="cls-5" d="M26.21,13.77a1.87,1.87,0,1,1-1.45-2.21A1.88,1.88,0,0,1,26.21,13.77Z"/><path class="cls-6" d="M24.55,11.79a2.3,2.3,0,0,0-.72,1.42,2.57,2.57,0,0,0,.1,1.73l.51,0a4.6,4.6,0,0,0,.6-1.44c.2-1.2-.09-1.57-.09-1.57Z"/><path class="cls-3" d="M24,15.27a1.92,1.92,0,1,1,2.26-1.49A1.92,1.92,0,0,1,24,15.27Zm.7-3.38a1.54,1.54,0,1,0,1.19,1.82A1.55,1.55,0,0,0,24.69,11.89Z"/><path class="cls-5" d="M24.38,12.33a1.23,1.23,0,0,0-.23.39,2.3,2.3,0,0,0-.08.7l.25-.09a2.28,2.28,0,0,1,.09-.55c.07-.16.18-.36.18-.36Z"/><path class="cls-5" d="M39.77,15.53a1.87,1.87,0,1,1-1.45-2.21A1.87,1.87,0,0,1,39.77,15.53Z"/><path class="cls-6" d="M38.11,13.54A2.31,2.31,0,0,0,37.39,15a2.57,2.57,0,0,0,.1,1.73l.51,0a4.71,4.71,0,0,0,.6-1.45c.2-1.19-.08-1.56-.08-1.56Z"/><path class="cls-3" d="M37.55,17a1.92,1.92,0,1,1,.78-3.75A1.92,1.92,0,0,1,37.55,17Zm.7-3.38a1.54,1.54,0,1,0,1.19,1.81A1.55,1.55,0,0,0,38.25,13.65Z"/><path class="cls-5" d="M38,14.08a1.57,1.57,0,0,0-.24.39,2.32,2.32,0,0,0-.08.7l.25-.08a2.28,2.28,0,0,1,.09-.55c.07-.17.18-.37.18-.37Z"/><path class="cls-6" d="M42.51,4.16l.5-.34s-2-1-2.81-.46.31,6.63.52,7.82a4.44,4.44,0,0,0-3.09-1.24,4.52,4.52,0,0,0-4.42,3.61,5.34,5.34,0,0,0-2.1-1,4.17,4.17,0,0,0-1.85.09A4.5,4.5,0,0,0,25,8.17,44.11,44.11,0,0,0,26.35,2c-.06-1-3.63-.5-3.63-.5l.37.5s2.19-.18,2.32.57S23.9,7.33,23.5,8.33a4.51,4.51,0,1,0,5.6,5.51,7.61,7.61,0,0,1,2.2-.08,4.48,4.48,0,0,1,1.82.82,4.51,4.51,0,0,0,9-.13,4.38,4.38,0,0,0-.28-1.54l0,0s-1.4-8.61-.84-9S42.51,4.16,42.51,4.16ZM24.75,16.1a3.44,3.44,0,1,1,3.44-3.44A3.44,3.44,0,0,1,24.75,16.1Zm12.88,1.78a3.43,3.43,0,1,1,3.43-3.43A3.44,3.44,0,0,1,37.63,17.88Z"/><path class="cls-3" d="M28.66,19.94l-.19,0a.18.18,0,0,1-.15-.22.18.18,0,0,1,.22-.14s1.24.25,1.77-.32a2,2,0,0,0,.37-1,.19.19,0,0,1,.37,0,2.28,2.28,0,0,1-.47,1.21A2.35,2.35,0,0,1,28.66,19.94Z"/><path class="cls-3" d="M32.72,20.34h.2a.19.19,0,0,0,0-.37s-1.26,0-1.67-.65a2.07,2.07,0,0,1-.17-1,.19.19,0,0,0-.17-.21.18.18,0,0,0-.2.17,2.3,2.3,0,0,0,.22,1.28A2.4,2.4,0,0,0,32.72,20.34Z"/><path class="cls-6" d="M32,17.09c-.23-.34-.93-.06-1-.05s-.61-.5-.94-.25c-.8.62.61,1.57.72,1.64h0C31,18.4,32.59,17.92,32,17.09Z"/><path class="cls-7" d="M41.63,6.32a17.62,17.62,0,0,1,1.59,1.42c.53.57,2.08,2.61,2.08,2.61s.27-5.35-.4-5.93S41.63,6.32,41.63,6.32Z"/><path class="cls-7" d="M17.81,6.19c0,.14.93-.66,2.3-1.23a14.92,14.92,0,0,1,2.7-.71S21.3,1,20.55,1.15,18.17,5,17.81,6.19Z"/><path class="cls-7" d="M20.7,21.88c-1.49,1,4.53,10.63,7.79,11,1.62.18,3.33-1.92,4.06-2.64,1-1,5.64-5.83,4.69-6.56-.68-.27-3.81,1.58-8.26,1.39-5.2-.22-7.52-3.66-8.36-3.19Z"/><path class="cls-3" d="M17.77,56.18s-1-.38-1.26-.06-2.77,11.17-1.75,11.72,11,0,11,0a4.88,4.88,0,0,0,2.66.75A3.07,3.07,0,0,0,30,68s11.6.66,11.72.16-2-10.75-2.63-11.12A1.1,1.1,0,0,0,37.94,57l-9.77,1.25Z"/><polygon class="cls-8" points="15.51 63.7 15.7 67.33 27.79 67.21 40.82 67.58 40.7 64.51 38.69 61.82 18.77 60.76 15.51 63.7"/><path class="cls-2" d="M28.17,56.87a31.41,31.41,0,0,0-5.77-1.75,18.16,18.16,0,0,0-5.14.5L15.51,63.7a32.76,32.76,0,0,1,5.76,0,30.76,30.76,0,0,1,6.93,1.88A28.63,28.63,0,0,1,35.37,64a18.67,18.67,0,0,1,5.33.56l-2.38-8.45a14.14,14.14,0,0,0-4.89-.63A28.3,28.3,0,0,0,28.17,56.87Z"/><path class="cls-9" d="M26.07,67.21a2.51,2.51,0,0,0,1.53.84,3.08,3.08,0,0,0,2.51-.75,2.56,2.56,0,0,0-1.94-.94A2.69,2.69,0,0,0,26.07,67.21Z"/><polygon class="cls-9" points="28.17 56.87 28.01 65.48 28.2 65.58 28.17 56.87"/><path class="cls-9" d="M29.07,66.3a.18.18,0,0,1-.17-.12.18.18,0,0,1,.11-.24,21,21,0,0,1,5-1.33,37.38,37.38,0,0,1,6,.22.18.18,0,0,1,.16.21.17.17,0,0,1-.2.16A39.37,39.37,0,0,0,34,65a21,21,0,0,0-4.87,1.31Z"/><path class="cls-9" d="M40.48,67l-.08,0a15.84,15.84,0,0,0-5.53-.76,28.85,28.85,0,0,0-5.06.68.19.19,0,0,1-.23-.14.2.2,0,0,1,.14-.23,30,30,0,0,1,5.15-.69,15.53,15.53,0,0,1,5.68.8.19.19,0,0,1,.1.25A.18.18,0,0,1,40.48,67Z"/><path class="cls-9" d="M27.23,66.43a.21.21,0,0,1-.13-.05s-1.72-1.5-6.28-1.87a38.57,38.57,0,0,0-4.83,0h-.14a.18.18,0,0,1-.18-.18.18.18,0,0,1,.18-.19H16a38.6,38.6,0,0,1,4.87,0c4.71.38,6.43,1.89,6.5,2a.18.18,0,0,1,0,.26A.21.21,0,0,1,27.23,66.43Z"/><path class="cls-9" d="M26.51,66.71a.17.17,0,0,1-.1,0,15.09,15.09,0,0,0-5.56-1.41,20.55,20.55,0,0,0-4.87.18.19.19,0,1,1-.06-.37,21,21,0,0,1,5-.19,15,15,0,0,1,5.71,1.47.18.18,0,0,1,.07.25A.2.2,0,0,1,26.51,66.71Z"/><path class="cls-9" d="M25.91,67.08h0c-.05,0-4.56-.5-6.38-.59a14,14,0,0,0-3.27.21.2.2,0,0,1-.23-.14.19.19,0,0,1,.15-.22,13.92,13.92,0,0,1,3.37-.23c1.83.1,6.36.59,6.4.6a.19.19,0,0,1,.17.21A.19.19,0,0,1,25.91,67.08Z"/><path class="cls-2" d="M4.84,47.86C4.93,47.87,3.11,70,3.11,70H5.82l.61-21.93-1.59-.2Z"/><polygon class="cls-2" points="7.53 47.86 7.53 69.99 8.74 69.98 8.13 47.96 7.53 47.86"/></svg>