<svg id="Layer_1" data-name="Layer 1" xmlns="http://www.w3.org/2000/svg" viewBox="0 0 71.99 50"><defs><style>.cls-1{fill:#99452e;}.cls-2{fill:#e56a36;}.cls-3{fill:#fff;}.cls-4{fill:#231f20;}.cls-5{fill:#72321c;}.cls-6{fill:#eaa496;}.cls-7{fill:#3d8387;}.cls-8{fill:#63d5e0;}</style></defs><path class="cls-1" d="M68.16,11.88c-1.91-.29-1.51,4.25-5.61,8.78-1.65,1.83-5.75,3.79-7.62,4.63-2.88-3.54-8.26-5.62-16-6.35S24.66,17.46,23.4,15.05c-1.65-3.17.06-12.83-.43-13.17-.72-.5-2.45.56-3.5,1.26A10.25,10.25,0,0,0,14,2c-2.05.05-3.54-.13-5.39.43C8.52,1.19,8.64-.13,8,0,4.76.73,2.24,5.34,1,9.79c-2,8.86-.65,18.93.7,23.91H1.67s4.64,15.42,5.61,16c.58.34.61-.61.61-.61a.77.77,0,0,0,.83.62c.66,0,.57-.76.57-.76s.08.67.64.6c.79-.11.36-3.27.52-4.88a2.42,2.42,0,0,1,1.94-2.52c.57.08,1.41,0,2,0a3,3,0,0,1,2.31,2.79c.25,1.59,0,4.78.79,4.84.56,0,.6-.63.6-.63s-.05.73.62.73a.77.77,0,0,0,.79-.67s.08.94.64.58,1.41-3.46,2.35-6.87a136.1,136.1,0,0,0,14.72.34l1,0a3.76,3.76,0,0,1,.66,1.73c.25,1.59,0,4.78.78,4.84.56,0,.61-.63.61-.63s-.05.73.62.73a.76.76,0,0,0,.78-.67s.09.94.65.58c.41-.27,1.36-3.32,2.28-6.64,2.7.24,4.56.2,5.14,1.62,1,2.42,1,5.11,1.67,5.12s.75-.75.75-.75.21.87.77.86.75-1,.75-1-.13.91.52,1,.74-.38.94-1.46,3-13.77,2.15-17.52a10.22,10.22,0,0,0-.19-1.15,26.93,26.93,0,0,0,8.83-8.19C67.61,19.06,70.47,12.24,68.16,11.88Z"/><path class="cls-2" d="M57.1,29.86c.56-.32,1.34-.81,2.23-1.44a32.36,32.36,0,0,0-1.72-3.05c-.24-.32-.53-.64-.77-1-.74.36-1.4.67-1.91.9-2.88-3.54-8.26-5.62-16-6.35S24.66,17.46,23.4,15.05c-1.65-3.17.06-12.83-.43-13.17-.72-.5-2.45.56-3.5,1.26A10.25,10.25,0,0,0,14,2c-2.05.05-3.54-.13-5.39.43C8.52,1.19,8.64-.13,8,0,4.76.73,2.24,5.34,1,9.79c-2,8.86-.65,18.93.7,23.91H1.67s4.64,15.42,5.61,16c.58.34.61-.61.61-.61a.77.77,0,0,0,.83.62c.66,0,.57-.76.57-.76s.08.67.64.6c.79-.11.36-3.27.52-4.88a2.42,2.42,0,0,1,1.94-2.52c.57.08,1.41,0,2,0a3,3,0,0,1,2.31,2.79c.25,1.59,0,4.78.79,4.84.56,0,.6-.63.6-.63s-.05.73.62.73a.77.77,0,0,0,.79-.67s.09.94.64.58,1.41-3.46,2.35-6.87a136.1,136.1,0,0,0,14.72.34l1,0a3.76,3.76,0,0,1,.66,1.73c.25,1.59,0,4.78.78,4.84.56,0,.61-.63.61-.63s-.05.73.62.73a.76.76,0,0,0,.78-.67s.09.94.65.58c.41-.27,1.36-3.32,2.28-6.64,2.7.24,4.56.2,5.14,1.62,1,2.42,1,5.11,1.67,5.12s.75-.75.75-.75.21.87.77.86.75-1,.75-1-.13.91.52,1,.75-.38.94-1.46,3-13.77,2.15-17.52A10.22,10.22,0,0,0,57.1,29.86Z"/><path class="cls-2" d="M66.51,16.7a7.94,7.94,0,0,0-1-.57,19.18,19.18,0,0,1-1.09,2.08c.69.71,1.41,1.39,2.12,2.09a.86.86,0,0,0,.14.13,26.37,26.37,0,0,0,1.23-2.65C67.38,17.46,66.94,17,66.51,16.7Z"/><path class="cls-2" d="M66.58,14.58c.33.26.57.61.9.87a4.89,4.89,0,0,0,1,.52c.64-2.09.79-3.9-.37-4.09-.93-.14-1.31.87-1.94,2.46Z"/><path class="cls-2" d="M64.39,19.87l-.74-.56a16.3,16.3,0,0,1-1.1,1.35,5.36,5.36,0,0,1-.64.61,11.83,11.83,0,0,1,1.22,1.64,11,11,0,0,0,1,1.13,22.83,22.83,0,0,0,1.77-2.37h0A12,12,0,0,0,64.39,19.87Z"/><path class="cls-2" d="M63,25A12,12,0,0,1,61.6,23.2a6.78,6.78,0,0,0-.92-1A29,29,0,0,1,58,23.78c.24.4.45.82.7,1.19a22.06,22.06,0,0,1,1.65,2.66,28.18,28.18,0,0,0,2.74-2.45Z"/><path class="cls-1" d="M28.6,17.61c-.4,0-2.77-.75-2.77-.75.06.9,1,2.25,1.21,3.13a47.84,47.84,0,0,1,.56,7,25.15,25.15,0,0,0,.07,4.26c.08.35.33,1.22.71,1.39.69.31.56-.68.58-1.17.05-1.27,0-2.55,0-3.82s.29-2.68.36-4a22.83,22.83,0,0,0-.38-4.83A4.71,4.71,0,0,0,28.6,17.61Z"/><path class="cls-1" d="M34.66,18.52l-2.32-.28a3.29,3.29,0,0,1,.8,1.17,11,11,0,0,1,1,3.05,40.27,40.27,0,0,1,.41,5.61c0,.87-1,8.67.29,8.56.72-.06.7-3,.72-3.53.05-1.5.16-3,.29-4.44a22.67,22.67,0,0,0-.43-8.22C35.23,19.72,34.88,19.23,34.66,18.52Z"/><path class="cls-1" d="M40,21.45A6.47,6.47,0,0,0,39.23,19L37,18.76s.36.81.5,1.18A8.77,8.77,0,0,1,38,22a34.64,34.64,0,0,1,.58,5.09,28,28,0,0,0,.22,3.9c.08.64.52,3.38,1.22,1.81,1.07-2.37.06-5.21-.07-7.63C39.9,23.94,40.08,22.7,40,21.45Z"/><path class="cls-1" d="M44.35,19.78l-2-.38c1.15,2.87.09,5.2.38,8.16.13,1.35.29,2.7.51,4,.07.46.07,1.31.71.87.39-.28.48-1.31.51-1.74.14-2.35-.12-4.66,0-7a27.51,27.51,0,0,0,.08-2.87A2.15,2.15,0,0,0,44.35,19.78Z"/><path class="cls-1" d="M50.19,21.78c-.08-.11-2.55-1.07-2.55-1.07A13.7,13.7,0,0,1,48,23.87c0,1.13.06,2.38,0,3.56-.06,1.35.24,2.65.29,4,0,.53-.29,3.23.43,3.41a.13.13,0,0,0,.13,0,.93.93,0,0,0,.31-.59l0,0a9.22,9.22,0,0,0,.69-3.88c0-1.64.05-3.23.21-4.84C50.16,24.43,50.5,22.21,50.19,21.78Z"/><path class="cls-3" d="M12.26,10a1.32,1.32,0,1,1-1.32-1.31A1.32,1.32,0,0,1,12.26,10Z"/><path class="cls-4" d="M11.12,8.91a1.56,1.56,0,0,0-.3,1.08,1.88,1.88,0,0,0,.31,1.19l.35-.09A3.08,3.08,0,0,0,11.69,10c0-.86-.28-1.07-.28-1.07Z"/><path class="cls-5" d="M10.94,11.37A1.35,1.35,0,1,1,12.29,10,1.34,1.34,0,0,1,10.94,11.37Zm0-2.43A1.09,1.09,0,1,0,12,10,1.08,1.08,0,0,0,10.94,8.94Z"/><path class="cls-3" d="M11.08,9.31a.92.92,0,0,0-.11.3,1.84,1.84,0,0,0,0,.49l.17-.09a1.91,1.91,0,0,1,0-.4,2.16,2.16,0,0,1,.07-.27Z"/><circle class="cls-3" cx="19.21" cy="9.63" r="1.32"/><path class="cls-4" d="M19.39,8.51a1.68,1.68,0,0,0-.3,1.09,1.83,1.83,0,0,0,.32,1.18l.35-.09A3.28,3.28,0,0,0,20,9.61c0-.85-.28-1.07-.28-1.07Z"/><path class="cls-5" d="M19.21,11a1.35,1.35,0,1,1,1.35-1.35A1.35,1.35,0,0,1,19.21,11Zm0-2.43A1.08,1.08,0,1,0,20.3,9.63,1.08,1.08,0,0,0,19.21,8.55Z"/><path class="cls-3" d="M19.35,8.91a.87.87,0,0,0-.1.3,2,2,0,0,0,0,.5l.16-.1a1.46,1.46,0,0,1,0-.39,2.58,2.58,0,0,1,.07-.28Z"/><path class="cls-5" d="M13.44,15.77h-.23a.22.22,0,1,1,0-.43s1.44.1,2-.62a2.24,2.24,0,0,0,.27-1.18.21.21,0,0,1,.21-.22.2.2,0,0,1,.22.21A2.65,2.65,0,0,1,15.56,15,2.7,2.7,0,0,1,13.44,15.77Z"/><path class="cls-5" d="M18.12,15.61a1.63,1.63,0,0,0,.23,0,.2.2,0,0,0,.18-.24.23.23,0,0,0-.24-.19s-1.44.2-2-.48a2.26,2.26,0,0,1-.34-1.16.23.23,0,0,0-.23-.21.21.21,0,0,0-.21.22A2.84,2.84,0,0,0,16,15,2.66,2.66,0,0,0,18.12,15.61Z"/><path class="cls-4" d="M16.82,12c-.32-.35-1.08.07-1.11.09s-.77-.48-1.11-.14c-.83.82.93,1.69,1.06,1.75h0C15.82,13.67,17.61,12.88,16.82,12Z"/><path class="cls-5" d="M9,7.5a.3.3,0,0,1-.26-.11.31.31,0,0,1,0-.45,2.1,2.1,0,0,1,.77-.43,2.07,2.07,0,0,1,.86-.09.32.32,0,1,1-.09.64h0a1.68,1.68,0,0,0-.6.07,1.59,1.59,0,0,0-.51.29A.32.32,0,0,1,9,7.5Z"/><path class="cls-5" d="M20.22,7.49a.32.32,0,0,0,.25-.12.32.32,0,0,0,0-.46,2,2,0,0,0-.78-.4,2.59,2.59,0,0,0-.87-.07.33.33,0,0,0-.26.38.32.32,0,0,0,.37.26h0a1.8,1.8,0,0,1,.6.06,1.61,1.61,0,0,1,.53.27A.39.39,0,0,0,20.22,7.49Z"/><path class="cls-6" d="M22.45,2.56a4.32,4.32,0,0,1,0,1.77A17.25,17.25,0,0,1,22,6.06a6.9,6.9,0,0,0-.78-1.27,7.06,7.06,0,0,0-1-1s.44-.45.74-.69S22.34,2.33,22.45,2.56Z"/><path class="cls-6" d="M7.88.65C7.61.62,7,1.14,6.26,2a18.82,18.82,0,0,0-1.6,2.6A10.77,10.77,0,0,1,6.59,3.45L8,2.85s.05-.47.09-.88S8.17.68,7.88.65Z"/><path class="cls-1" d="M12.31,3.7A13.17,13.17,0,0,1,12,2a13.5,13.5,0,0,0-1.91.09,5.13,5.13,0,0,1,.4,1.14c.29,1.3.54,2.59,1.13,2.59S12.57,4.78,12.31,3.7Z"/><path class="cls-1" d="M12.85,2a5.72,5.72,0,0,1,.48,1.59c.3,1.58.55,3.15,1.13,3.15s.94-1.31.67-2.63A19,19,0,0,1,14.84,2c-.26,0-.51,0-.78,0Z"/><path class="cls-1" d="M16,2.8c.3,1.57.55,3.15,1.14,3.15s.93-1.31.66-2.63c-.06-.3-.11-.6-.15-.93a11.54,11.54,0,0,0-1.81-.31C15.86,2.29,15.92,2.51,16,2.8Z"/><path class="cls-7" d="M66.09,11.64s-2.58-2.93-2.74-3.7.23-2.08,2.19-2,3.5.32,3.53,1A34.69,34.69,0,0,1,68.18,11Z"/><path class="cls-5" d="M65.27,12.19c.07.5.45.53,2.78-.12s3.18-.77,3-1.11-1.28-.24-2.91-.1C65.93,11.05,65.14,11.37,65.27,12.19Z"/><path class="cls-8" d="M66.25,11.14s-1.38-4.06-1-4.82c1-1.93,5.49-.79,5.23.78a12.66,12.66,0,0,1-2,3.74Z"/><path class="cls-8" d="M68.47,10.84s1.2-3.14,2-2.89S72.08,9,72,9.46s-1.49,1.27-1.49,1.27Z"/><path class="cls-7" d="M67.64,6.92a.54.54,0,0,1-.54.54.54.54,0,1,1,0-1.08A.54.54,0,0,1,67.64,6.92Z"/><path class="cls-5" d="M66.26,12h0a4.48,4.48,0,0,1-1.87-.59,3.66,3.66,0,0,1-1-1,.22.22,0,1,1,.36-.24,3.42,3.42,0,0,0,.91.91,4.09,4.09,0,0,0,1.66.52.22.22,0,0,1,.2.24A.22.22,0,0,1,66.26,12Z"/><path class="cls-5" d="M66,12h0a4.81,4.81,0,0,1-1.94.26,3.81,3.81,0,0,1-1.38-.5.22.22,0,0,1-.07-.3.21.21,0,0,1,.3-.06,3.7,3.7,0,0,0,1.21.43,4.34,4.34,0,0,0,1.72-.24A.22.22,0,0,1,66,12Z"/><path class="cls-7" d="M70.87,8.11s.89.62.81,1.13-1.56,1.51-1.48,1.51l.29,0s1.4-.85,1.49-1.27C72.14,8.68,70.87,8.11,70.87,8.11Z"/><path class="cls-7" d="M68.67,5.48s1.39.58,1.42,1.44-1.74,3.93-1.74,3.93h.12s2.41-3.14,2.16-3.92A2.41,2.41,0,0,0,68.67,5.48Z"/></svg>