<svg id="Layer_1" data-name="Layer 1" xmlns="http://www.w3.org/2000/svg" viewBox="0 0 82.55 100"><defs><style>.cls-1{fill:#ea824e;}.cls-2{fill:#231f20;}.cls-3{fill:#99452e;}.cls-4{fill:#747d89;}.cls-5{fill:#e56a36;}</style></defs><path class="cls-1" d="M67,20.77c-.72-.87-1.35.61-1.35.61a1.31,1.31,0,0,0-.94-1.49c-1.09-.34-1.38.87-1.38.87s.27-1.12-.66-1.34c-1.32-.3-1.27,4.63-2.5,7.1-1.1,2.22-5.06,4.63-10,4.9l-.19,0a107.93,107.93,0,0,0-6.13-11.3,24.92,24.92,0,0,0-4.11-5.59c-1.42-2.19-4.56-6.94-5.1-7s-.86,2.21-1,3.48c-3.53-.84-7.57-.11-12.3,1.92-3.76,1.62-6.42,3.4-8,6-1.29-.76-3.47-1.81-4.14-1.29-.9.7,2.28,9.43,2.28,9.73l.05-.17a55.2,55.2,0,0,0,2.78,10.58A37.09,37.09,0,0,0,7.43,41C2.18,44.15-.31,52.87,0,53.74c.41,1.06,1.47-.16,1.47-.16a1.32,1.32,0,0,0,.43,1.71,1.1,1.1,0,0,0,1.59-.39s-.61,1,.21,1.47c1.16.71,2.64-4,4.58-6,1.55-1.58,5.33-2.59,9.51-1.87,1.46,4.92,2.56,9.78,2.43,13.73A78.34,78.34,0,0,1,19,73.46a13.77,13.77,0,0,0-8.41,4C8.15,79.75,6.12,87.08,5.92,89s0,2.52.65,2.7,1.18-1,1.18-1a1.24,1.24,0,0,0,.8,1.75c1,.28,1.5-1.5,1.5-1.5s-.41,1.4.72,1.52c.68.08,1.38-1.67,1.38-1.67a11.55,11.55,0,0,1,2.7-4.66c6.66-5.82,17.71-2.68,19.36-2.4C42.46,85.15,44.13,87.48,46,91a12.83,12.83,0,0,1,1.5,6.76s-.38,1.52.66,1.75,1.07-1.35,1.07-1.35,0,1.71.91,1.83,1.35-.95,1.46-1.55c0,.47,0,1.21.75,1.34,1,.18,1.29-1.61,2.58-7.37s3.67-24.53,2.24-34A141,141,0,0,0,54,42.84c2.92-.79,6.85-4.05,10-7.66C68,30.56,67.63,21.5,67,20.77Z"/><path class="cls-2" d="M20.14,25.77a.4.4,0,0,0-.28.41c0,.05,0,.56-.88.82a1.1,1.1,0,0,1-1.22-.28.39.39,0,0,0-.62.47,1.87,1.87,0,0,0,2.06.55c1.53-.45,1.44-1.59,1.44-1.64a.39.39,0,0,0-.43-.35Z"/><path class="cls-2" d="M17.66,27a.2.2,0,0,0-.12.09l-.67.94a.24.24,0,0,0,.06.32.23.23,0,0,0,.32-.05l.67-.95a.23.23,0,0,0-.06-.32A.24.24,0,0,0,17.66,27Z"/><path class="cls-2" d="M18.36,27.19a.24.24,0,0,0-.17.2l-.12,1.15a.23.23,0,0,0,.46.05l.12-1.15a.24.24,0,0,0-.2-.26Z"/><path class="cls-2" d="M33.58,20.74a.39.39,0,0,1,.47.13s.36.44,1.2.07a1.1,1.1,0,0,0,.76-1,.39.39,0,0,1,.37-.4.4.4,0,0,1,.41.36,1.88,1.88,0,0,1-1.23,1.75,1.66,1.66,0,0,1-2.15-.34.4.4,0,0,1,.1-.54Z"/><path class="cls-2" d="M36.29,20.12a.26.26,0,0,1,.15,0l1.12.3a.22.22,0,0,1,.16.28.23.23,0,0,1-.28.16l-1.12-.3a.23.23,0,0,1-.16-.28A.24.24,0,0,1,36.29,20.12Z"/><path class="cls-2" d="M35.86,20.68a.24.24,0,0,1,.25.05l.83.81a.22.22,0,0,1,0,.32.23.23,0,0,1-.32,0l-.84-.81a.25.25,0,0,1,0-.33Z"/><path class="cls-3" d="M28,31.14l-.26.09a.26.26,0,0,1-.32-.18.26.26,0,0,1,.18-.32s1.66-.48,2-1.51a2.73,2.73,0,0,0-.18-1.43.27.27,0,0,1,.14-.34.26.26,0,0,1,.34.14,3.36,3.36,0,0,1,.2,1.78A3.25,3.25,0,0,1,28,31.14Z"/><path class="cls-3" d="M33.21,29l.25-.11a.26.26,0,0,0,.1-.35.25.25,0,0,0-.35-.11s-1.53.81-2.45.28a2.88,2.88,0,0,1-.87-1.16.25.25,0,0,0-.33-.15.26.26,0,0,0-.15.34,3.25,3.25,0,0,0,1.09,1.41A3.19,3.19,0,0,0,33.21,29Z"/><path class="cls-2" d="M30.28,25.55c-.51-.27-1.19.51-1.22.55s-1.06-.21-1.31.3c-.59,1.26,1.74,1.52,1.92,1.54h0C29.82,27.81,31.51,26.18,30.28,25.55Z"/><path class="cls-2" d="M6.39,19.74c1.92-1,3.91-.3,5.11,3.4s3.4,9.81.8,10.71-3.9-.1-5.51-4.71S4.19,20.94,6.39,19.74Z"/><path class="cls-4" d="M5.61,22.77c1.3-.71,2.64-.19,3.45,2.32s2.27,6.66.5,7.26-2.64-.08-3.71-3.21S4.11,23.57,5.61,22.77Z"/><path class="cls-2" d="M38.11,5.57c-2.09.64-2.94,2.58-1.13,6s4.65,9.28,7.11,8.05,2.65-2.87.47-7.22S40.5,4.83,38.11,5.57Z"/><path class="cls-4" d="M40.84,6.44c-1.06.45-1.38,1.75-.16,4s3.15,6.18,4.37,5.34,1.21-1.94-.27-4.84S42.07,5.93,40.84,6.44Z"/><path class="cls-2" d="M6.39,20.74S2.29,6.83,17.7,1.53s20.81,4.9,20.81,4.9l-1,1.1S30.71-3.07,17,3.13C4.88,8.62,8.1,20.54,8.1,20.54Z"/><path class="cls-1" d="M55.3,71.94s3.67-1.42,6.38,0,4.8,4,7.5,3.23,4.5-4.35,8.33-3.9,5.4,2.17,4.8,4-3.07-.68-4.8-.08-5.33,4.28-8.78,3.91-4.31-2.41-7.66-2.93c-4.35-.68-5.47.82-5.47.82Z"/><path class="cls-5" d="M18.11,14.62c1.37,1.54,2.18,5.8,3.37,5,1-.68-1.34-3.95-1.42-6C20,13.57,18.11,14.62,18.11,14.62Z"/><path class="cls-5" d="M24.33,11.8c-.57.18-2.79,1.11-2.79,1.11.67,1.75.76,2.67,1.53,4.39.39.86,1.64,4.36,2.89,2.66.81-1.1-.7-3.33-1-4.47S24.5,12.4,24.33,11.8Z"/><path class="cls-5" d="M28.16,10.91l-2,.32c.36,1.44,2.56,6.93,3.58,5.8C30.58,16.1,28,12.83,28.16,10.91Z"/><path class="cls-5" d="M32.51,40c-4,2.08-6.6,7.6-6.4,14.61s.07,17.3,8.4,18.41c12,1.6,16.41-6.21,13.41-18.41-1-4-2.07-7.82-3.67-10.6C42.16,40.33,37.51,37.35,32.51,40Z"/><path class="cls-5" d="M60.6,71.54c-.82-.14-.9,0-1,1.13S58,75.89,59.4,76s1.07-.33,1.5-1.45S61.93,71.77,60.6,71.54Z"/><path class="cls-5" d="M63.1,76.79c-.72-.42-.3-.5.08-1.32s.25-2.55,1.15-1.85.9.8.62,1.67S64.45,77.59,63.1,76.79Z"/><path class="cls-5" d="M66.4,78.5c-1-.53-.77-.33-.47-1.63s-.25-2.15.87-1.83.53.78.5,1.73S68,79.35,66.4,78.5Z"/><path class="cls-5" d="M69.43,75.14c-.78.36-.6.63-.33,1.73S69,79.4,70.31,79s1.27-.67.67-1.88S70.48,74.67,69.43,75.14Z"/><path class="cls-5" d="M71.86,73.57c-1.18.91-.68.55.07,1.72s.6,3,1.83,2.23.6-.73-.25-2S72.73,72.89,71.86,73.57Z"/><path class="cls-5" d="M74.48,71.82c-.82.56-1.07.05-.27,1.55s1,3.12,2.17,2.45.2-.85-.27-2S75.51,71.12,74.48,71.82Z"/><path class="cls-5" d="M78.11,71.37c-1.2-.08-.75-.25-.7.95s-.25,2.62.65,2.75.9-.35,1-1.63S79.26,71.44,78.11,71.37Z"/><path class="cls-5" d="M80.46,72c-.35-.18-.22.2-.42,1s-.75,2.18-.4,2.4,2.27,1.48,2.72.28S82.56,73.07,80.46,72Z"/></svg>